<svg width="118" height="32" viewBox="0 0 118 32" fill="none" xmlns="http://www.w3.org/2000/svg">
<g clip-path="url(#clip0_807_2792)">
<path d="M116.785 30.7367C116.785 31.0878 116.498 31.3743 116.147 31.3743H112.291C111.941 31.3743 111.654 31.0878 111.654 30.7367V26.8814C111.654 26.5304 111.941 26.2438 112.291 26.2438H116.147C116.498 26.2438 116.785 26.5309 116.785 26.8814V30.7367Z" fill="#B5BD0D"/>
<path d="M109.482 30.7367C109.482 31.0878 109.195 31.3743 108.845 31.3743H104.989C104.638 31.3743 104.351 31.0878 104.351 30.7367V26.8814C104.351 26.5304 104.638 26.2438 104.989 26.2438H108.845C109.195 26.2438 109.482 26.5309 109.482 26.8814V30.7367Z" fill="#0093A9"/>
<path d="M102.181 30.7367C102.181 31.0878 101.894 31.3743 101.543 31.3743H97.6872C97.3366 31.3743 97.0496 31.0878 97.0496 30.7367V26.8814C97.0496 26.5304 97.3366 26.2438 97.6872 26.2438H101.543C101.894 26.2438 102.181 26.5309 102.181 26.8814V30.7367Z" fill="#DB0934"/>
<path d="M8.85415 31.5772C7.876 31.5772 6.97522 31.4888 6.13223 31.3116C4.58859 30.9888 3.35014 30.3855 2.45319 29.5177C1.50943 28.6112 0.911936 27.3541 0.770563 25.9805C0.625369 24.585 0.884712 23.0241 1.54286 21.3405C2.19528 19.6746 3.16006 18.0101 4.49212 16.2521C5.83659 14.4815 7.44089 12.7598 9.26346 11.1359C13.1049 7.71235 17.6078 4.88394 22.2836 2.95677C26.3538 1.27558 30.7202 -0.242751 35.0841 0.033309C37.5386 0.184234 40.7113 1.00238 41.8858 4.04668C42.2459 5.0062 42.3667 6.12382 42.2364 7.27964C42.1031 8.47032 41.7248 9.75558 41.1101 11.0986L41.0399 11.2529H39.1328L39.2809 10.8899C40.2352 8.55534 40.4023 6.52931 39.7767 4.86674C39.6487 4.53576 39.5001 4.23773 39.3358 3.98364L39.3353 3.98268C38.0721 2.00632 35.6176 1.06161 32.0355 1.16907C30.2664 1.22447 28.3445 1.54256 26.3228 2.11331C25.774 2.26853 25.2377 2.43474 24.7276 2.60811C24.4544 2.70077 24.1836 2.79629 23.9123 2.89468C23.8836 2.90376 23.8674 2.91044 23.8497 2.91856C22.8109 3.34889 21.7401 3.84895 20.6717 4.40298C15.9405 6.86698 11.8707 9.92513 8.57665 13.4929C6.98047 15.2257 5.73916 16.8815 4.78298 18.5541C3.80101 20.2769 3.21068 21.8244 2.98047 23.2854C2.74692 24.7641 2.9074 26.1061 3.44232 27.1655C3.96149 28.1943 4.84412 29.0205 5.99468 29.5559C7.18155 30.1104 8.58047 30.3908 10.2707 30.4132C11.9854 30.4333 13.8586 30.1888 15.8397 29.6897C16.8561 29.4346 17.9173 29.1094 18.9967 28.722L19.0144 28.7545C19.0235 28.7507 19.033 28.7469 19.0435 28.743L19.0306 28.7101L19.0578 28.6996L19.4079 28.5773V29.1652L19.2408 29.2307C18.6118 29.4757 17.9789 29.7092 17.3595 29.9247C15.1739 30.6946 13.1794 31.1832 11.2627 31.4186C10.4092 31.5247 9.60829 31.5772 8.85415 31.5772Z" fill="white"/>
<path d="M18.6696 20.2393H23.3665C23.4491 20.5707 23.5026 20.8774 23.5284 21.1587C23.5532 21.4405 23.5651 21.7137 23.5651 21.9787C23.5651 22.2438 23.5532 22.5213 23.5284 22.8112C23.5031 23.1011 23.4496 23.4121 23.3665 23.7426H14.4705L14.4948 10.8953C14.8592 10.8131 15.2194 10.7549 15.5752 10.7214C15.932 10.6889 16.2754 10.6718 16.6068 10.6718C16.922 10.6718 17.2616 10.6889 17.6256 10.7214C17.99 10.7553 18.3468 10.8131 18.6945 10.8953L18.6696 20.2393Z" fill="white"/>
<path d="M30.5472 20.9353C30.6967 20.9353 30.9112 20.919 31.1934 20.8856C31.4748 20.8526 31.6816 20.8192 31.8148 20.7862V18.0524H30.3982C29.8184 18.0524 29.3293 18.177 28.9319 18.4259C28.5346 18.6738 28.3354 19.0224 28.3354 19.469C28.3354 19.8004 28.4094 20.0612 28.5594 20.2518C28.7079 20.4424 28.8942 20.5871 29.1182 20.6869C29.3427 20.7862 29.5825 20.8531 29.8389 20.8861C30.0964 20.919 30.3323 20.9353 30.5472 20.9353ZM24.6831 19.5435C24.6831 18.732 24.8565 18.061 25.2047 17.5308C25.5528 17.0007 25.9999 16.578 26.5463 16.2633C27.0936 15.9485 27.6983 15.7288 28.3607 15.6051C29.0222 15.4804 29.6689 15.4184 30.2989 15.4184H31.8148C31.7976 15.1198 31.7155 14.8715 31.566 14.6728C31.417 14.4736 31.2264 14.3208 30.9948 14.2129C30.7626 14.1054 30.5062 14.0304 30.2244 13.9898C29.9421 13.9483 29.6531 13.9273 29.3546 13.9273C28.9573 13.9273 28.4925 13.9731 27.9629 14.0643C27.4327 14.1555 26.8863 14.2998 26.3232 14.499C26.1737 14.2176 26.0453 13.9602 25.9383 13.7286C25.8299 13.4969 25.7477 13.2605 25.6894 13.0203C25.6316 12.7795 25.5901 12.5317 25.5653 12.2747C25.5404 12.0178 25.5275 11.7245 25.5275 11.3926C26.3232 11.128 27.1142 10.9288 27.9013 10.796C28.6879 10.6637 29.3957 10.5969 30.0257 10.5969C30.8873 10.5969 31.6658 10.7005 32.3617 10.9073C33.0576 11.1146 33.6498 11.4336 34.1384 11.864C34.6265 12.2948 35.0038 12.8455 35.2689 13.517C35.5345 14.188 35.6663 14.9871 35.6663 15.9146V23.1958C35.0368 23.3782 34.2755 23.5597 33.3809 23.7422C32.4863 23.9246 31.5416 24.0158 30.5477 24.0158C29.6861 24.0158 28.8947 23.9366 28.1749 23.7794C27.4537 23.6228 26.8367 23.3696 26.3237 23.0219C25.8093 22.6738 25.4076 22.2138 25.1177 21.6426C24.8278 21.0714 24.6831 20.3721 24.6831 19.5435Z" fill="white"/>
<path d="M37.7783 10.9455C38.5563 10.8461 39.3645 10.7635 40.2012 10.6971C41.0375 10.6307 41.8285 10.5978 42.5745 10.5978C44.579 10.5978 46.0826 10.9751 47.0846 11.7283C48.0866 12.4824 48.5886 13.5384 48.5886 14.8968C48.5886 15.4102 48.5298 15.8577 48.4143 16.2384C48.2982 16.62 48.1573 16.9467 47.9925 17.2199C47.8263 17.4931 47.6525 17.7132 47.47 17.879C47.2871 18.0447 47.1385 18.177 47.023 18.2763L49.8557 23.6929C49.5242 23.7593 49.1555 23.809 48.7495 23.8424C48.3436 23.8759 47.9505 23.8921 47.5694 23.8921C47.1051 23.8921 46.6581 23.8759 46.2268 23.8424C45.796 23.809 45.4392 23.7593 45.1588 23.6929L42.4006 17.8288L42.7483 17.6297C43.3282 17.2987 43.7251 16.9467 43.9409 16.5737C44.1559 16.2006 44.2638 15.7994 44.2638 15.3682C44.2638 14.9378 44.1353 14.5854 43.8784 14.3122C43.6219 14.039 43.2116 13.9019 42.6485 13.9019C42.3333 13.9019 42.0935 13.9191 41.9283 13.952V23.7178C41.497 23.8009 41.1082 23.8544 40.76 23.8797C40.4123 23.9045 40.1052 23.9169 39.8406 23.9169C39.5584 23.9169 39.2527 23.9045 38.9212 23.8797C38.5898 23.8549 38.2086 23.8014 37.7778 23.7178V10.9455H37.7783Z" fill="white"/>
<path d="M55.5702 23.7182C55.139 23.7846 54.7502 23.8343 54.402 23.8677C54.0543 23.9002 53.7391 23.9169 53.4573 23.9169C53.176 23.9169 52.8612 23.9002 52.513 23.8677C52.1658 23.8343 51.7842 23.7846 51.3701 23.7182V10.8962C51.7345 10.8136 52.0947 10.7558 52.4514 10.7224C52.8068 10.689 53.1507 10.6722 53.4826 10.6722C53.7973 10.6722 54.1369 10.689 54.5018 10.7224C54.8653 10.7558 55.2221 10.8136 55.5702 10.8962V23.7182Z" fill="white"/>
<path d="M66.4045 10.8958C66.5373 10.8628 66.8105 10.8294 67.2246 10.7964C67.6382 10.7635 68.0613 10.7463 68.4921 10.7463C69.0385 10.7463 69.5481 10.7635 70.0205 10.7964C70.4924 10.8299 70.8191 10.8628 71.0015 10.8958L66.1318 23.6934C65.7841 23.776 65.4316 23.83 65.0753 23.8553C64.7185 23.8797 64.3756 23.8921 64.0441 23.8921C63.7122 23.8921 63.3726 23.8797 63.0249 23.8553C62.6772 23.8305 62.3625 23.7765 62.0812 23.6934L57.3098 10.8958C57.4923 10.8628 57.8194 10.8294 58.2918 10.7964C58.7637 10.7635 59.2733 10.7463 59.8201 10.7463C60.25 10.7463 60.6808 10.7635 61.1121 10.7964C61.5424 10.8299 61.8242 10.8628 61.957 10.8958L64.218 18.5992C64.5991 17.324 64.9674 16.0315 65.3246 14.7224C65.6795 13.4142 66.0396 12.1385 66.4045 10.8958Z" fill="white"/>
<path d="M76.7165 23.7182C76.2857 23.7846 75.8964 23.8343 75.5487 23.8677C75.2006 23.9002 74.8858 23.9169 74.605 23.9169C74.3222 23.9169 74.008 23.9002 73.6598 23.8677C73.3121 23.8343 72.9305 23.7846 72.5168 23.7182V10.8962C72.8808 10.8136 73.2414 10.7558 73.5982 10.7224C73.9535 10.689 74.2974 10.6722 74.6289 10.6722C74.9436 10.6722 75.2832 10.689 75.6481 10.7224C76.012 10.7558 76.3688 10.8136 76.7165 10.8962V23.7182Z" fill="white"/>
<path d="M85.0145 13.7534C84.4844 13.7534 84.0292 13.9191 83.6481 14.2501C83.2665 14.5815 83.0425 15.0955 82.9771 15.7913H86.9522C86.9188 15.2115 86.7416 14.7272 86.4182 14.3375C86.0954 13.9487 85.6273 13.7534 85.0145 13.7534ZM83.0267 18.6484C83.2092 19.328 83.5282 19.8085 83.9834 20.0898C84.439 20.3716 85.0399 20.5116 85.7849 20.5116C86.2654 20.5116 86.8037 20.4547 87.3997 20.3382C87.9968 20.2231 88.5842 20.0488 89.1645 19.8162C89.3966 20.247 89.5996 20.7604 89.773 21.3569C89.9468 21.9535 90.0419 22.5749 90.0586 23.2211C88.5842 23.7675 87.0769 24.0406 85.5366 24.0406C84.344 24.0406 83.3209 23.8749 82.4674 23.5439C81.6135 23.2125 80.9181 22.753 80.3798 22.1655C79.8411 21.5771 79.4432 20.8774 79.1872 20.0655C78.9298 19.254 78.8022 18.3676 78.8022 17.4066C78.8022 16.4624 78.9345 15.5759 79.1996 14.7473C79.4642 13.9191 79.8616 13.1993 80.3917 12.5856C80.9224 11.9728 81.5848 11.488 82.38 11.1317C83.1753 10.7759 84.1023 10.5978 85.1636 10.5978C86.0409 10.5978 86.8242 10.7473 87.512 11.0453C88.1993 11.3438 88.7829 11.7536 89.2639 12.2752C89.7439 12.7972 90.1126 13.4267 90.3695 14.1636C90.627 14.9006 90.7545 15.7001 90.7545 16.5617C90.7545 17.0088 90.734 17.4104 90.6934 17.7667C90.6508 18.1235 90.6136 18.4172 90.5806 18.6489H83.0267V18.6484Z" fill="white"/>
<path d="M92.792 10.9455C93.5705 10.8461 94.3786 10.7635 95.2144 10.6971C96.0507 10.6307 96.8417 10.5978 97.5882 10.5978C99.5922 10.5978 101.095 10.9751 102.098 11.7283C103.1 12.4824 103.601 13.5384 103.601 14.8968C103.601 15.4102 103.543 15.8577 103.427 16.2384C103.311 16.62 103.17 16.9467 103.005 17.2199C102.84 17.4931 102.666 17.7132 102.483 17.879C102.3 18.0447 102.152 18.177 102.036 18.2763L104.869 23.6929C104.537 23.7593 104.169 23.809 103.763 23.8424C103.356 23.8759 102.963 23.8921 102.582 23.8921C102.118 23.8921 101.671 23.8759 101.24 23.8424C100.809 23.809 100.453 23.7593 100.172 23.6929L97.4138 17.8288L97.7615 17.6297C98.3418 17.2987 98.7387 16.9467 98.9541 16.5737C99.1695 16.2006 99.2775 15.7994 99.2775 15.3682C99.2775 14.9378 99.149 14.5854 98.892 14.3122C98.6351 14.039 98.2253 13.9019 97.6622 13.9019C97.347 13.9019 97.1077 13.9191 96.9419 13.952V23.7178C96.5107 23.8009 96.1219 23.8544 95.7742 23.8797C95.4265 23.9045 95.1194 23.9169 94.8548 23.9169C94.572 23.9169 94.2659 23.9045 93.9344 23.8797C93.603 23.8549 93.2223 23.8014 92.7915 23.7178V10.9455H92.792Z" fill="white"/>
<path d="M111.529 13.7534C110.999 13.7534 110.543 13.9191 110.162 14.2501C109.781 14.5815 109.557 15.0955 109.491 15.7913H113.467C113.433 15.2115 113.256 14.7272 112.932 14.3375C112.61 13.9487 112.141 13.7534 111.529 13.7534ZM109.541 18.6484C109.723 19.328 110.042 19.8085 110.498 20.0898C110.953 20.3716 111.554 20.5116 112.299 20.5116C112.779 20.5116 113.318 20.4547 113.913 20.3382C114.51 20.2231 115.099 20.0488 115.679 19.8162C115.91 20.247 116.113 20.7604 116.287 21.3569C116.461 21.9535 116.556 22.5749 116.573 23.2211C115.098 23.7675 113.591 24.0406 112.05 24.0406C110.858 24.0406 109.835 23.8749 108.981 23.5439C108.127 23.2125 107.432 22.753 106.893 22.1655C106.355 21.5771 105.957 20.8774 105.701 20.0655C105.443 19.254 105.316 18.3676 105.316 17.4066C105.316 16.4624 105.449 15.5759 105.714 14.7473C105.978 13.9191 106.375 13.1993 106.906 12.5856C107.436 11.9728 108.099 11.488 108.894 11.1317C109.689 10.7759 110.616 10.5978 111.677 10.5978C112.555 10.5978 113.337 10.7473 114.025 11.0453C114.712 11.3438 115.296 11.7536 115.777 12.2752C116.257 12.7972 116.626 13.4267 116.883 14.1636C117.14 14.9006 117.268 15.7001 117.268 16.5617C117.268 17.0088 117.247 17.4104 117.206 17.7667C117.164 18.1235 117.127 18.4172 117.094 18.6489H109.541V18.6484Z" fill="white"/>
</g>
<defs>
<clipPath id="clip0_807_2792">
<rect width="116.537" height="32" fill="white" transform="translate(0.731445)"/>
</clipPath>
</defs>
</svg>
