<svg width="244" height="68" viewBox="0 0 244 68" fill="none" xmlns="http://www.w3.org/2000/svg">
<g clip-path="url(#clip0_807_2109)">
<path d="M242.986 64.855C242.986 65.59 242.385 66.19 241.651 66.19H233.578C232.844 66.19 232.243 65.59 232.243 64.855V56.783C232.243 56.048 232.844 55.448 233.578 55.448H241.651C242.385 55.448 242.986 56.049 242.986 56.783V64.855Z" fill="#B5BD0D"/>
<path d="M227.697 64.855C227.697 65.59 227.096 66.19 226.362 66.19H218.289C217.555 66.19 216.954 65.59 216.954 64.855V56.783C216.954 56.048 217.555 55.448 218.289 55.448H226.362C227.096 55.448 227.697 56.049 227.697 56.783V64.855Z" fill="#0093A9"/>
<path d="M212.409 64.855C212.409 65.59 211.808 66.19 211.074 66.19H203.001C202.267 66.19 201.666 65.59 201.666 64.855V56.783C201.666 56.048 202.267 55.448 203.001 55.448H211.074C211.808 55.448 212.409 56.049 212.409 56.783V64.855Z" fill="#DB0934"/>
<path d="M17.0069 66.6139C14.9589 66.6139 13.0729 66.4289 11.3079 66.0579C8.0759 65.3819 5.4829 64.1189 3.6049 62.3019C1.6289 60.4039 0.377902 57.7719 0.0819018 54.8959C-0.222098 51.9739 0.320902 48.7059 1.6989 45.1809C3.0649 41.6929 5.0849 38.2079 7.8739 34.5269C10.6889 30.8199 14.0479 27.2149 17.8639 23.8149C25.9069 16.6469 35.3349 10.7249 45.1249 6.68995C53.6469 3.16995 62.7889 -0.00905472 71.9259 0.568945C77.0649 0.884945 83.7079 2.59795 86.1669 8.97195C86.9209 10.9809 87.1739 13.3209 86.9009 15.7409C86.6219 18.2339 85.8299 20.9249 84.5429 23.7369L84.3959 24.0599H80.4029L80.7129 23.2999C82.7109 18.4119 83.0609 14.1699 81.7509 10.6889C81.4829 9.99595 81.1719 9.37195 80.8279 8.83995L80.8269 8.83795C78.1819 4.69995 73.0429 2.72195 65.5429 2.94695C61.8389 3.06295 57.8149 3.72894 53.5819 4.92394C52.4329 5.24894 51.3099 5.59695 50.2419 5.95995C49.6699 6.15394 49.1029 6.35395 48.5349 6.55995C48.4749 6.57895 48.4409 6.59295 48.4039 6.60995C46.2289 7.51095 43.9869 8.55795 41.7499 9.71795C31.8439 14.8769 23.3229 21.2799 16.4259 28.7499C13.0839 32.3779 10.4849 35.8449 8.4829 39.3469C6.4269 42.9539 5.1909 46.1939 4.7089 49.2529C4.2199 52.3489 4.5559 55.1589 5.6759 57.3769C6.7629 59.5309 8.6109 61.2609 11.0199 62.3819C13.5049 63.5429 16.4339 64.1299 19.9729 64.1769C23.5629 64.2189 27.4849 63.7069 31.6329 62.6619C33.7609 62.1279 35.9829 61.4469 38.2429 60.6359L38.2799 60.7039C38.2989 60.6959 38.3189 60.6879 38.3409 60.6799L38.3139 60.6109L38.3709 60.5889L39.1039 60.3329V61.5639L38.7539 61.7009C37.4369 62.2139 36.1119 62.7029 34.8149 63.1539C30.2389 64.7659 26.0629 65.7889 22.0499 66.2819C20.2629 66.5039 18.5859 66.6139 17.0069 66.6139Z" fill="#2D2E82"/>
<path d="M37.5579 42.876H47.3919C47.5649 43.57 47.6769 44.212 47.7309 44.801C47.7829 45.391 47.8079 45.963 47.8079 46.518C47.8079 47.073 47.7829 47.654 47.7309 48.261C47.6779 48.868 47.5659 49.519 47.3919 50.211H28.7659L28.8169 23.312C29.5799 23.14 30.3339 23.018 31.0789 22.948C31.8259 22.88 32.5449 22.844 33.2389 22.844C33.8989 22.844 34.6099 22.88 35.3719 22.948C36.1349 23.019 36.8819 23.14 37.6099 23.312L37.5579 42.876Z" fill="#2D2E82"/>
<path d="M62.4269 44.3329C62.7399 44.3329 63.1889 44.2989 63.7799 44.2289C64.3689 44.1599 64.8019 44.0899 65.0809 44.0209V38.2969H62.1149C60.9009 38.2969 59.8769 38.5579 59.0449 39.0789C58.2129 39.5979 57.7959 40.3279 57.7959 41.2629C57.7959 41.9569 57.9509 42.5029 58.2649 42.9019C58.5759 43.3009 58.9659 43.6039 59.4349 43.8129C59.9049 44.0209 60.4069 44.1609 60.9439 44.2299C61.4829 44.2989 61.9769 44.3329 62.4269 44.3329ZM50.1489 41.4189C50.1489 39.7199 50.5119 38.3149 51.2409 37.2049C51.9699 36.0949 52.9059 35.2099 54.0499 34.5509C55.1959 33.8919 56.4619 33.4319 57.8489 33.1729C59.2339 32.9119 60.5879 32.7819 61.9069 32.7819H65.0809C65.0449 32.1569 64.8729 31.6369 64.5599 31.2209C64.2479 30.8039 63.8489 30.4839 63.3639 30.2579C62.8779 30.0329 62.3409 29.8759 61.7509 29.7909C61.1599 29.7039 60.5549 29.6599 59.9299 29.6599C59.0979 29.6599 58.1249 29.7559 57.0159 29.9469C55.9059 30.1379 54.7619 30.4399 53.5829 30.8569C53.2699 30.2679 53.0009 29.7289 52.7769 29.2439C52.5499 28.7589 52.3779 28.2639 52.2559 27.7609C52.1349 27.2569 52.0479 26.7379 51.9959 26.1999C51.9439 25.6619 51.9169 25.0479 51.9169 24.3529C53.5829 23.7989 55.2389 23.3819 56.8869 23.1039C58.5339 22.8269 60.0159 22.6869 61.3349 22.6869C63.1389 22.6869 64.7689 22.9039 66.2259 23.3369C67.6829 23.7709 68.9229 24.4389 69.9459 25.3399C70.9679 26.2419 71.7579 27.3949 72.3129 28.8009C72.8689 30.2059 73.1449 31.8789 73.1449 33.8209V49.0659C71.8269 49.4479 70.2329 49.8279 68.3599 50.2099C66.4869 50.5919 64.5089 50.7829 62.4279 50.7829C60.6239 50.7829 58.9669 50.6169 57.4599 50.2879C55.9499 49.9599 54.6579 49.4299 53.5839 48.7019C52.5069 47.9729 51.6659 47.0099 51.0589 45.8139C50.4519 44.6179 50.1489 43.1539 50.1489 41.4189Z" fill="#2D2E82"/>
<path d="M77.5669 23.417C79.1959 23.209 80.8879 23.036 82.6399 22.897C84.3909 22.758 86.0469 22.689 87.6089 22.689C91.8059 22.689 94.9539 23.479 97.0519 25.056C99.1499 26.635 100.201 28.846 100.201 31.69C100.201 32.765 100.078 33.702 99.8359 34.499C99.5929 35.298 99.2979 35.982 98.9529 36.554C98.6049 37.126 98.2409 37.587 97.8589 37.934C97.4759 38.281 97.1649 38.558 96.9229 38.766L102.854 50.107C102.16 50.246 101.388 50.35 100.538 50.42C99.6879 50.49 98.8649 50.524 98.0669 50.524C97.0949 50.524 96.1589 50.49 95.2559 50.42C94.3539 50.35 93.6069 50.246 93.0199 50.107L87.2449 37.829L87.9729 37.412C89.1869 36.719 90.0179 35.982 90.4699 35.201C90.9199 34.42 91.1459 33.58 91.1459 32.677C91.1459 31.776 90.8769 31.038 90.3389 30.466C89.8019 29.894 88.9429 29.607 87.7639 29.607C87.1039 29.607 86.6019 29.643 86.2559 29.712V50.159C85.3529 50.333 84.5389 50.445 83.8099 50.498C83.0819 50.55 82.4389 50.576 81.8849 50.576C81.2939 50.576 80.6539 50.55 79.9599 50.498C79.2659 50.446 78.4679 50.334 77.5659 50.159V23.417H77.5669Z" fill="#2D2E82"/>
<path d="M114.819 50.16C113.916 50.299 113.102 50.403 112.373 50.473C111.645 50.541 110.985 50.576 110.395 50.576C109.806 50.576 109.147 50.541 108.418 50.473C107.691 50.403 106.892 50.299 106.025 50.16V23.314C106.788 23.141 107.542 23.02 108.289 22.95C109.033 22.88 109.753 22.845 110.448 22.845C111.107 22.845 111.818 22.88 112.582 22.95C113.343 23.02 114.09 23.141 114.819 23.314V50.16Z" fill="#2D2E82"/>
<path d="M137.503 23.313C137.781 23.244 138.353 23.174 139.22 23.105C140.086 23.036 140.972 23 141.874 23C143.018 23 144.085 23.036 145.074 23.105C146.062 23.175 146.746 23.244 147.128 23.313L136.932 50.108C136.204 50.281 135.466 50.394 134.72 50.447C133.973 50.498 133.255 50.524 132.561 50.524C131.866 50.524 131.155 50.498 130.427 50.447C129.699 50.395 129.04 50.282 128.451 50.108L118.461 23.313C118.843 23.244 119.528 23.174 120.517 23.105C121.505 23.036 122.572 23 123.717 23C124.617 23 125.519 23.036 126.422 23.105C127.323 23.175 127.913 23.244 128.191 23.313L132.925 39.442C133.723 36.772 134.494 34.066 135.242 31.325C135.985 28.586 136.739 25.915 137.503 23.313Z" fill="#2D2E82"/>
<path d="M159.094 50.16C158.192 50.299 157.377 50.403 156.649 50.473C155.92 50.541 155.261 50.576 154.673 50.576C154.081 50.576 153.423 50.541 152.694 50.473C151.966 50.403 151.167 50.299 150.301 50.16V23.314C151.063 23.141 151.818 23.02 152.565 22.95C153.309 22.88 154.029 22.845 154.723 22.845C155.382 22.845 156.093 22.88 156.857 22.95C157.619 23.02 158.366 23.141 159.094 23.314V50.16Z" fill="#2D2E82"/>
<path d="M176.468 29.296C175.358 29.296 174.405 29.643 173.607 30.336C172.808 31.03 172.339 32.106 172.202 33.563H180.525C180.455 32.349 180.084 31.335 179.407 30.519C178.731 29.705 177.751 29.296 176.468 29.296ZM172.306 39.545C172.688 40.968 173.356 41.974 174.309 42.563C175.263 43.153 176.521 43.446 178.081 43.446C179.087 43.446 180.214 43.327 181.462 43.083C182.712 42.842 183.942 42.477 185.157 41.99C185.643 42.892 186.068 43.967 186.431 45.216C186.795 46.465 186.994 47.766 187.029 49.119C183.942 50.263 180.786 50.835 177.561 50.835C175.064 50.835 172.922 50.488 171.135 49.795C169.347 49.101 167.891 48.139 166.764 46.909C165.636 45.677 164.803 44.212 164.267 42.512C163.728 40.813 163.461 38.957 163.461 36.945C163.461 34.968 163.738 33.112 164.293 31.377C164.847 29.643 165.679 28.136 166.789 26.851C167.9 25.568 169.287 24.553 170.952 23.807C172.617 23.062 174.558 22.689 176.78 22.689C178.617 22.689 180.257 23.002 181.697 23.626C183.136 24.251 184.358 25.109 185.365 26.201C186.37 27.294 187.142 28.612 187.68 30.155C188.219 31.698 188.486 33.372 188.486 35.176C188.486 36.112 188.443 36.953 188.358 37.699C188.269 38.446 188.191 39.061 188.122 39.546H172.306V39.545Z" fill="#2D2E82"/>
<path d="M192.752 23.417C194.382 23.209 196.074 23.036 197.824 22.897C199.575 22.758 201.231 22.689 202.794 22.689C206.99 22.689 210.137 23.479 212.236 25.056C214.334 26.635 215.384 28.846 215.384 31.69C215.384 32.765 215.262 33.702 215.019 34.499C214.777 35.298 214.482 35.982 214.136 36.554C213.79 37.126 213.425 37.587 213.043 37.934C212.66 38.281 212.349 38.558 212.107 38.766L218.038 50.107C217.343 50.246 216.573 50.35 215.722 50.42C214.871 50.49 214.048 50.524 213.25 50.524C212.279 50.524 211.342 50.49 210.44 50.42C209.538 50.35 208.793 50.246 208.204 50.107L202.429 37.829L203.157 37.412C204.372 36.719 205.203 35.982 205.654 35.201C206.105 34.42 206.331 33.58 206.331 32.677C206.331 31.776 206.062 31.038 205.524 30.466C204.986 29.894 204.128 29.607 202.949 29.607C202.289 29.607 201.788 29.643 201.441 29.712V50.159C200.538 50.333 199.724 50.445 198.996 50.498C198.268 50.55 197.625 50.576 197.071 50.576C196.479 50.576 195.838 50.55 195.144 50.498C194.45 50.446 193.653 50.334 192.751 50.159V23.417H192.752Z" fill="#2D2E82"/>
<path d="M231.982 29.296C230.872 29.296 229.918 29.643 229.121 30.336C228.323 31.03 227.854 32.106 227.715 33.563H236.04C235.97 32.349 235.599 31.335 234.921 30.519C234.246 29.705 233.265 29.296 231.982 29.296ZM227.82 39.545C228.201 40.968 228.87 41.974 229.823 42.563C230.777 43.153 232.035 43.446 233.595 43.446C234.6 43.446 235.728 43.327 236.975 43.083C238.225 42.842 239.457 42.477 240.671 41.99C241.156 42.892 241.581 43.967 241.944 45.216C242.308 46.465 242.508 47.766 242.543 49.119C239.456 50.263 236.3 50.835 233.074 50.835C230.577 50.835 228.435 50.488 226.647 49.795C224.86 49.101 223.404 48.139 222.277 46.909C221.149 45.677 220.317 44.212 219.78 42.512C219.241 40.813 218.974 38.957 218.974 36.945C218.974 34.968 219.252 33.112 219.807 31.377C220.36 29.643 221.192 28.136 222.303 26.851C223.412 25.568 224.801 24.553 226.465 23.807C228.13 23.062 230.071 22.689 232.293 22.689C234.13 22.689 235.769 23.002 237.208 23.626C238.648 24.251 239.87 25.109 240.876 26.201C241.882 27.294 242.655 28.612 243.192 30.155C243.731 31.698 243.998 33.372 243.998 35.176C243.998 36.112 243.955 36.953 243.869 37.699C243.781 38.446 243.703 39.061 243.634 39.546H227.82V39.545Z" fill="#2D2E82"/>
</g>
<defs>
<clipPath id="clip0_807_2109">
<rect width="244" height="67" fill="white" transform="translate(0 0.5)"/>
</clipPath>
</defs>
</svg>
